<?xml version="1.0" encoding="UTF-8" standalone="no"?>
<!-- Created with Inkscape (http://www.inkscape.org/) -->

<svg
   xmlns:dc="http://purl.org/dc/elements/1.1/"
   xmlns:cc="http://creativecommons.org/ns#"
   xmlns:rdf="http://www.w3.org/1999/02/22-rdf-syntax-ns#"
   xmlns:svg="http://www.w3.org/2000/svg"
   xmlns="http://www.w3.org/2000/svg"
   xmlns:sodipodi="http://sodipodi.sourceforge.net/DTD/sodipodi-0.dtd"
   xmlns:inkscape="http://www.inkscape.org/namespaces/inkscape"
   width="60"
   height="60"
   id="svg6517"
   version="1.1"
   inkscape:version="0.48.3.1 r9886"
   sodipodi:docname="Open_project.svg">
  <defs
     id="defs6519" />
  <sodipodi:namedview
     id="base"
     pagecolor="#ffffff"
     bordercolor="#666666"
     borderopacity="1.0"
     inkscape:pageopacity="0.0"
     inkscape:pageshadow="2"
     inkscape:zoom="5.3172361"
     inkscape:cx="36.473992"
     inkscape:cy="29.966184"
     inkscape:document-units="px"
     inkscape:current-layer="layer1"
     showgrid="false"
     inkscape:window-width="1366"
     inkscape:window-height="690"
     inkscape:window-x="0"
     inkscape:window-y="25"
     inkscape:window-maximized="1" />
  <metadata
     id="metadata6522">
    <rdf:RDF>
      <cc:Work
         rdf:about="">
        <dc:format>image/svg+xml</dc:format>
        <dc:type
           rdf:resource="http://purl.org/dc/dcmitype/StillImage" />
        <dc:title></dc:title>
      </cc:Work>
    </rdf:RDF>
  </metadata>
  <g
     inkscape:label="Layer 1"
     inkscape:groupmode="layer"
     id="layer1"
     transform="translate(0,-992.36218)">
    <g
       transform="translate(-287.7881,815.08771)"
       id="g6467">
      <rect
         ry="3.901917"
         rx="3.9370589"
         y="182.08542"
         x="288.90564"
         height="50.378098"
         width="57.764912"
         id="rect13967"
         style="fill:#b7bec8;fill-opacity:1;stroke:none" />
      <path
         style="fill:#808000;stroke:#000000;stroke-width:1.43124235px;stroke-linecap:butt;stroke-linejoin:miter;stroke-opacity:1"
         d="m 305.29932,205.74585 14.54069,4.03363 c 1.74148,0.54188 3.84788,0.36793 5.04492,-0.97784 l 6.97573,-8.0926 c 3.84227,-4.81215 6.19695,-5.9165 4.89051,-6.92602 l -16.30615,-2.79287 c -3.72892,-0.63186 -3.73528,-0.75989 -5.78853,1.48112 l -10.30341,10.23319 c -1.88658,1.63675 -2.60695,2.35152 0.94624,3.04139 z"
         id="path13997"
         inkscape:connector-curvature="0"
         sodipodi:nodetypes="ccccccccc" />
      <path
         style="fill:none;stroke:#000000;stroke-width:1.43124235px;stroke-linecap:butt;stroke-linejoin:miter;stroke-opacity:1"
         d="m 302.96421,204.39807 c -1.7962,4.64693 -1.52218,7.45364 0.73864,8.49432 l 0,0 19.20457,5.53978 13.29547,-15.51139 0,0 c 0.5231,-1.53904 1.0038,-3.16287 0.36933,-7.01705 l -0.36933,1.10795"
         id="path13999"
         inkscape:connector-curvature="0"
         sodipodi:nodetypes="cccccccc" />
      <path
         style="fill:none;stroke:#000000;stroke-width:1.43124235px;stroke-linecap:butt;stroke-linejoin:miter;stroke-opacity:1"
         d="m 303.10203,212.58553 c -1.60566,2.43652 -0.63209,5.01275 0.60082,6.9546 l 0,0 20.31252,7.01705 0,0 12.18752,-14.03411 0,0 c 0.7925,-3.01322 0.98164,-6.17727 0.20027,-9.58395"
         id="path14001"
         inkscape:connector-curvature="0"
         sodipodi:nodetypes="cccccccc" />
      <path
         style="fill:none;stroke:#000000;stroke-width:1px;stroke-linecap:butt;stroke-linejoin:miter;stroke-opacity:1"
         d="m 322.00798,210.20431 0.516,8.35036"
         id="path14003"
         inkscape:connector-curvature="0"
         sodipodi:nodetypes="cc" />
      <path
         style="fill:none;stroke:#000000;stroke-width:1px;stroke-linecap:butt;stroke-linejoin:miter;stroke-opacity:1"
         d="m 323.59452,218.07289 0.55456,8.16407"
         id="path14005"
         inkscape:connector-curvature="0"
         sodipodi:nodetypes="cc" />
      <path
         style="fill:#e3dbdb;fill-opacity:1;stroke:none"
         d="m 324.59378,224.08854 c -0.0451,-0.28526 -0.15736,-1.72966 -0.24937,-3.20978 l -0.16729,-2.69113 5.85757,-6.83017 5.85757,-6.83018 0.10455,0.6972 c 0.16631,1.10902 -0.0494,4.88726 -0.34307,6.00857 -0.26032,0.99401 -0.29236,1.03509 -5.30028,6.79513 -2.77111,3.18729 -5.18221,5.97146 -5.35799,6.18705 l -0.31961,0.39197 -0.0821,-0.51866 z"
         id="path14007"
         inkscape:connector-curvature="0" />
      <path
         style="fill:#e3dbdb;fill-opacity:1;stroke:none"
         d="m 322.96743,216.2106 c -0.0485,-0.43507 -0.12632,-1.62459 -0.17298,-2.64338 -0.0467,-1.01879 -0.11525,-2.0524 -0.15241,-2.29691 -0.0652,-0.42894 -0.0374,-0.45345 0.79252,-0.69735 0.47305,-0.13903 1.10461,-0.44711 1.40348,-0.68462 0.29886,-0.23751 2.08537,-2.22431 3.97001,-4.41512 6.95386,-8.08353 6.98402,-8.11661 7.14257,-7.83331 0.20702,0.36993 0.0373,3.25936 -0.24416,4.15573 -0.19986,0.63659 -1.14746,1.81546 -6.25358,7.77985 -3.30991,3.86627 -6.10336,7.1188 -6.20766,7.22786 -0.15548,0.16256 -0.20552,0.0558 -0.27779,-0.59275 l 0,0 z"
         id="path14009"
         inkscape:connector-curvature="0" />
      <path
         style="fill:#6c5353;fill-opacity:1;stroke:none"
         d="m 312.71913,214.67674 c -8.59551,-2.49035 -8.90698,-2.59315 -9.36395,-3.09047 -0.61756,-0.67208 -0.84513,-1.54262 -0.72178,-2.76105 0.1466,-1.44816 0.54867,-2.8392 0.7935,-2.74525 0.11109,0.0426 0.74379,0.21584 1.406,0.38492 0.6622,0.16907 4.0412,1.09679 7.50887,2.06159 6.56488,1.82652 7.72699,2.13499 8.61673,2.28721 l 0.53362,0.0913 0.0991,1.81273 c 0.0545,0.997 0.14098,2.42956 0.19215,3.18347 0.0531,0.78187 0.0359,1.36662 -0.04,1.36116 -0.0732,-0.005 -4.13408,-1.16879 -9.02427,-2.5856 z"
         id="path14011"
         inkscape:connector-curvature="0" />
      <path
         style="fill:#6c5353;fill-opacity:1;stroke:none"
         d="m 316.27563,223.04794 c -3.74915,-1.29821 -8.00091,-2.77061 -9.44837,-3.27199 l -2.63174,-0.91159 -0.42867,-0.90737 c -0.60025,-1.27053 -0.79659,-2.34655 -0.60884,-3.33658 0.0832,-0.4385 0.1512,-0.82151 0.1512,-0.85113 0,-0.14514 1.05298,0.1415 10.07917,2.74368 l 9.70388,2.79755 0.1722,2.27788 c 0.23685,3.13316 0.23924,3.83538 0.013,3.82689 -0.10188,-0.004 -3.25272,-1.06912 -7.00187,-2.36734 l 0,0 z"
         id="path14013"
         inkscape:connector-curvature="0" />
      <path
         style="fill:#aaeeff;stroke:#000000;stroke-width:1px;stroke-linecap:round;stroke-linejoin:round;stroke-opacity:1"
         d="m 317.22279,194.12723 -2.35714,2.35714 13.17227,2.35714 3.18908,-2.91176 z"
         id="path14015"
         inkscape:connector-curvature="0" />
      <path
         inkscape:connector-curvature="0"
         id="path14063"
         d="m 329.37152,212.52774 c -0.3515,-3.86189 -0.71526,-7.09194 -0.80837,-7.1779 -0.0931,-0.0859 -4.73334,-1.36502 -10.31161,-2.84238 -5.57828,-1.47735 -10.26051,-2.74879 -10.40494,-2.82542 -0.17829,-0.0946 0.20311,-0.55325 1.18783,-1.42841 l 1.45046,-1.28908 10.27298,2.80748 c 5.65015,1.5441 10.32097,2.87821 10.37959,2.96468 0.0586,0.0864 0.36389,3.15162 0.67836,6.81145 0.31447,3.65982 0.61799,6.85676 0.67448,7.1043 0.0786,0.3441 -0.17206,0.73816 -1.06422,1.67348 -0.64181,0.67288 -1.22286,1.22341 -1.29121,1.22341 -0.0683,0 -0.41186,-3.15972 -0.76335,-7.02161 l 0,0 z"
         style="fill:#d40000;fill-opacity:1;stroke:#bb000b;stroke-width:0.40569299;stroke-linecap:round;stroke-linejoin:round;stroke-miterlimit:4;stroke-opacity:1;stroke-dasharray:none;stroke-dashoffset:0" />
      <path
         sodipodi:nodetypes="ccscccscsccc"
         style="fill:#d40000;fill-opacity:1;stroke:#bb000b;stroke-width:0.40569299;stroke-linecap:round;stroke-linejoin:round;stroke-miterlimit:4;stroke-opacity:1;stroke-dasharray:none;stroke-dashoffset:0"
         d="m 311.72027,216.03845 c 0.3515,-4.15267 0.71526,-7.68364 0.80837,-7.84663 0.0931,-0.16292 4.73334,-5.28074 10.31161,-11.37279 5.57828,-6.09205 5.74076,-4.89003 5.88519,-5.08615 0.17829,-0.24209 -0.20311,-0.38522 -1.18783,-0.44576 l -1.45046,-0.0892 -5.75323,4.95904 c -6.36399,5.48549 -10.32097,11.41637 -10.37959,11.55133 -0.0586,0.13488 -0.36389,3.45265 -0.67836,7.37263 -0.31447,3.91997 0.34366,5.7332 0.28717,7.46994 l 3.02858,0.85217 c -0.92733,-4.33612 -1.84099,-1.31065 -0.87145,-7.36458 z"
         id="path14065"
         inkscape:connector-curvature="0" />
    </g>
  </g>
</svg>
